<?xml version="1.0" encoding="utf-8"?>
<!-- Generator: Adobe Illustrator 29.5.1, SVG Export Plug-In . SVG Version: 9.03 Build 0)  -->
<svg version="1.0" id="katman_1" xmlns="http://www.w3.org/2000/svg" xmlns:xlink="http://www.w3.org/1999/xlink" x="0px" y="0px"
	 viewBox="0 0 1920 1080" style="enable-background:new 0 0 1920 1080;" xml:space="preserve">
<style type="text/css">
	.st0{fill:url(#SVGID_1_);}
	.st1{fill:url(#SVGID_00000011018938928784457510000014792317303485995168_);}
	.st2{fill:url(#SVGID_00000078021878957124247170000004346392082005956008_);}
	.st3{fill:url(#SVGID_00000034806511100718166960000006408199871276713106_);}
	.st4{fill:url(#SVGID_00000097461008871279807740000006356545063153321351_);}
	.st5{fill:url(#SVGID_00000003090542418996727070000014104345551601464968_);}
	.st6{fill:url(#SVGID_00000034080568835078226040000001614740532386924161_);}
	.st7{fill:url(#SVGID_00000116919568971096929290000008740097444217659576_);}
	.st8{fill:url(#SVGID_00000101782139578937762500000006261808805622938794_);}
</style>
<g>
	<g>
		
			<image style="overflow:visible;opacity:0.55;" width="1008" height="1011" xlink:href="281E0E68.png"  transform="matrix(0.24 0 0 0.24 845.7921 431.0721)">
		</image>
		<g>
			<g>
				<g>
					<linearGradient id="SVGID_1_" gradientUnits="userSpaceOnUse" x1="896.8373" y1="478.9133" x2="1041.1753" y2="610.1296">
						<stop  offset="0" style="stop-color:#FED500"/>
						<stop  offset="0.2263" style="stop-color:#FED618"/>
						<stop  offset="0.9955" style="stop-color:#FED96A"/>
					</linearGradient>
					<path class="st0" d="M1049.1,604.6c0,16-13,29-29,29c-15.4,0-28.4-12.3-29-27.8c-0.1-2.7,0.1-5.3,0.7-7.8
						c-0.1-1.3-0.6-2.5-1.5-3.7l-75-75.7c-2.2-1.4-4.7,0.5-7.2,0.7c-24.8,1.7-41.9-13.6-38-39l18.9,18.5l15.8,0.2l15.1-14.8
						l-0.3-17.2l-18.2-18.5c23.6-4.1,41.8,13.7,39.6,37.3c-0.3,3.5-2.6,8.3-1.7,11.4c11.7,12.9,24.5,24.9,36.8,37.3
						c6.3,6.4,12.6,12.8,18.9,19.3l0.1,0.1l18.5,19.3l2.5,2.6c1.3-0.2,2.7-0.3,4.1-0.3C1036.1,575.6,1049.1,588.6,1049.1,604.6z"/>
					<g>
						<g>
							
								<linearGradient id="SVGID_00000060735955912023634130000012981642507108678038_" gradientUnits="userSpaceOnUse" x1="855.2645" y1="496.644" x2="951.8176" y2="624.633">
								<stop  offset="0" style="stop-color:#D0D5DB"/>
								<stop  offset="0.9955" style="stop-color:#6C7A85"/>
							</linearGradient>
							<path style="fill:url(#SVGID_00000060735955912023634130000012981642507108678038_);" d="M982.5,610.6l-5.9,2.1l-5.2,21.6
								l-22,0.1l-4.9-21.4c-8.3-2.8-16.7-5.4-24.2-10.3l-19.4,12.8c-3.1-3.7-14.2-11.4-15.6-15.5c-0.1-0.4-0.4-0.8,0-1.2
								c1.8-3.1,13.6-16,13.3-18.4c-0.2-1-4.4-7.8-5.2-9.8c-1.9-4.3-3.3-8.8-4.6-13.3l-21.9-4.8l-0.1-22.9
								c0.2-0.8,15.1-3.7,16.6-3.7c0,0,12.2,4.9,19.1,4c-4.1,25.9,7.8,50.3,30.8,62.5c10.7,5.7,23.1,7.9,35.1,6.3
								c2.2-0.3,7.7-2.1,9.1-1.9C982.9,597.4,981.7,606.7,982.5,610.6z"/>
							
								<linearGradient id="SVGID_00000124162736324400091300000001789080723176140218_" gradientUnits="userSpaceOnUse" x1="949.4202" y1="425.6142" x2="1045.9733" y2="553.6032">
								<stop  offset="0" style="stop-color:#D0D5DB"/>
								<stop  offset="0.9955" style="stop-color:#6C7A85"/>
							</linearGradient>
							<path style="fill:url(#SVGID_00000124162736324400091300000001789080723176140218_);" d="M1053.9,552.5
								c-0.7,0.7-17.5,2.4-20.4,4c-2.4,1.4-3.3,8.2-4.3,11c-6.3-0.3-9.8-2-13.7-6.8l-0.4-0.6c16-41.4-21.8-83.8-64.5-76.4
								c0.5-8.1-1.7-15.8-5-23.1l3.6-13h22.2l5.1,21.5c4.9,2,10.1,3.2,15,5.2c3.5,1.4,8.7,5.7,12.1,4.3c5-2.1,11-9.3,16.2-11.8
								c1.8,0,13.5,13.5,15.3,15.9c0,1.9-10.6,14-11.9,17.4c-0.3,0.9-0.8,1.6-0.4,2.6l9.9,22.6l20.9,4.5L1053.9,552.5z"/>
							<g>
								
									<linearGradient id="SVGID_00000031206574598065513160000017062719788353678260_" gradientUnits="userSpaceOnUse" x1="927.8363" y1="546.0928" x2="1000.4124" y2="546.0928">
									<stop  offset="0" style="stop-color:#0B1B2B"/>
									<stop  offset="1" style="stop-color:#202E2E"/>
								</linearGradient>
								<path style="fill:url(#SVGID_00000031206574598065513160000017062719788353678260_);" d="M998.7,569.7
									c-1.6-2.3-6.7-6.6-9.1-9.1c-16-16.5-32.7-32.2-48.7-48.7c-2.2-1.9-4.5-2.7-7.3-2.1c-4.5,0.9-7.5,7.5-4.4,11.2l59.5,60.1
									C995.8,586.1,1004.1,577.5,998.7,569.7z"/>
							</g>
							<g>
								
									<linearGradient id="SVGID_00000106139503046755971930000013993683428014530469_" gradientUnits="userSpaceOnUse" x1="999.4477" y1="604.604" x2="1040.6317" y2="604.604">
									<stop  offset="0" style="stop-color:#0B1B2B"/>
									<stop  offset="1" style="stop-color:#202E2E"/>
								</linearGradient>
								<path style="fill:url(#SVGID_00000106139503046755971930000013993683428014530469_);" d="M1020,584
									c-11.4,0-20.6,9.2-20.6,20.6c0,11.4,9.2,20.6,20.6,20.6c11.4,0,20.6-9.2,20.6-20.6C1040.6,593.2,1031.4,584,1020,584z
									 M1020,615.8c-6.2,0-11.2-5-11.2-11.2s5-11.2,11.2-11.2c6.2,0,11.2,5,11.2,11.2S1026.2,615.8,1020,615.8z"/>
							</g>
						</g>
					</g>
					<g>
						
							<linearGradient id="SVGID_00000100350480461274748910000009190276656996589442_" gradientUnits="userSpaceOnUse" x1="861.7157" y1="472.5261" x2="1061.4196" y2="611.393">
							<stop  offset="0" style="stop-color:#0B1B2B"/>
							<stop  offset="1" style="stop-color:#202E2E"/>
						</linearGradient>
						<path style="fill:url(#SVGID_00000100350480461274748910000009190276656996589442_);" d="M1064.3,526.2c-0.3-3-1.1-4.6-4-5.7
							c-5.9-2.2-13.9-2.2-20-4c-0.6-0.4-5.5-12-5.7-13.1c-0.2-1-0.3-1.9,0.2-2.7c3.1-5.2,14.1-15.1,11.5-21.3
							c-0.9-2.3-18.8-20.6-21.6-22.6c-7.7-5.7-16.3,7.8-23.1,10.8l-16.4-6c-2.4-4.3-2.9-20.5-6-22.9c-1.2-0.9-2.1-1.3-3.1-1.4h0
							c-0.4-0.1-0.9,0-1.3,0l-21.3-0.1c-2.4-0.1-4.8-0.1-7.1-0.1c-7.7,0.2-6.3,7.9-8.5,12.9c-10.7-8.4-23.1-13.4-36.9-11
							c-4.4,0.8-15,3.6-13.3,9.8c0.8,3,19.3,18.1,22,22.2c1.3,2,1.7,5.5,1.3,7.8c-0.2,1-8.8,10-9.7,10.4c-1.5,0.7-6.2,0.5-7.8,0.1
							c-4.4-1.3-17.9-19.2-23-22.5c-4.5-2.6-6.7,3-8,6.4c-4.4,11.5-3,24.4,3,35c2.1,3.7,5,6.2,6.6,10c-3.5,0.8-13.4,1.5-14.7,5.2
							l-0.1,34.7c0.6,2.2,2.1,3,4,3.7c5.6,2.1,13.4,2.2,19.2,4.2l6.3,14.3l-10.7,14.6c-1,1.4-1.6,3-1.6,4.7c-0.1,2.2,0.8,4.4,2.3,6
							c6,6.2,16.9,19.9,21.1,20.9c6.7,1.7,15.9-9,22-11.5l16.4,6c0.9,0.9,3.2,17.1,4.4,20c0.6,1.6,2.4,3.4,4,3.7l14.8,0.2
							c3.9,0.2,7.7,0.3,11.4,0.2h0.1c1.4,0,2.8-0.1,4.2-0.2c3.6-0.3,4.6-1.3,5.7-4.7c0.8-2.5,3.6-18.1,4.4-18.7
							c5.4,6.9,10.6,14,18.8,17.9c40,18.9,74.2-35.1,40.6-64c-3.2-2.8-8.7-3.6-4.8-8.7c1.7-2.3,16.8-3.7,20.9-5.2
							c2.5-0.9,3.5-2.6,3.8-5.3C1065.1,549.2,1065,533.2,1064.3,526.2z M976.5,612.7l-5.2,21.6l-22,0.1l-4.9-21.4
							c-8.3-2.8-16.7-5.4-24.2-10.3l-19.4,12.8c-3.1-3.7-14.2-11.4-15.6-15.5c-0.1-0.4-0.4-0.8,0-1.2c1.8-3.1,13.6-16,13.3-18.4
							c-0.2-1-4.4-7.8-5.2-9.8c-1.9-4.3-3.3-8.8-4.6-13.3l-21.9-4.8l-0.1-22.9c0.2-0.8,15.1-3.7,16.6-3.7c0,0,12.2,4.9,19.1,4
							c-4.1,25.9,7.8,50.3,30.8,62.5c10.7,5.7,23.1,7.9,35.1,6.3c2.2-0.3,7.7-2.1,9.1-1.9c5.4,0.8,4.2,10,5,13.9L976.5,612.7z
							 M912.2,530.4l57.8,58.5c-13.7,1.4-26.7-1-38.2-8.9C915.9,568.9,908.9,549.5,912.2,530.4z M1049.1,604.6c0,16-13,29-29,29
							c-15.4,0-28.4-12.3-29-27.8c-0.1-2.7,0.1-5.3,0.7-7.8c-0.1-1.3-0.6-2.5-1.5-3.7l-75-75.7c-2.2-1.4-4.7,0.5-7.2,0.7
							c-24.8,1.7-41.9-13.6-38-39l18.9,18.5l15.8,0.2l15.1-14.8l-0.3-17.2l-18.2-18.5c23.6-4.1,41.8,13.7,39.6,37.3
							c-0.3,3.5-2.6,8.3-1.7,11.4c11.7,12.9,24.5,24.9,36.8,37.3c6.3,6.4,12.6,12.8,18.9,19.3l0.1,0.1l18.5,19.3l2.5,2.6
							c1.3-0.2,2.7-0.3,4.1-0.3C1036.1,575.6,1049.1,588.6,1049.1,604.6z M949.9,493.4c35-6.8,66.5,23.8,57.8,59.1
							c-20-18-37.7-38.3-57.2-56.8L949.9,493.4z M1033.5,556.5c-2.4,1.4-3.3,8.2-4.3,11c-6.3-0.3-9.8-2-13.7-6.8l-0.4-0.6
							c16-41.4-21.8-83.8-64.5-76.4c0.5-8.1-1.7-15.8-5-23.1l3.6-13h22.2l5.1,21.5c4.9,2,10.1,3.2,15,5.2c3.5,1.4,8.7,5.7,12.1,4.3
							c5-2.1,11-9.3,16.2-11.8c1.8,0,13.5,13.5,15.3,15.9c0,1.9-10.6,14-11.9,17.4c-0.3,0.9-0.8,1.6-0.4,2.6l9.9,22.6l20.9,4.5
							l0.2,22.8C1053.1,553.2,1036.3,554.9,1033.5,556.5z"/>
					</g>
				</g>
				
					<linearGradient id="SVGID_00000054971982996752004380000009080408289622627236_" gradientUnits="userSpaceOnUse" x1="866.714" y1="580.097" x2="982.462" y2="580.097">
					<stop  offset="0" style="stop-color:#D0D5DB"/>
					<stop  offset="0.9955" style="stop-color:#6C7A85"/>
				</linearGradient>
				<path style="fill:url(#SVGID_00000054971982996752004380000009080408289622627236_);" d="M882.9,528.4c2.2,0.8,10.2,3.7,16.6,4
					c-2.9,25.9,9.7,50,32.5,62.1c8.8,4.7,18.7,7.1,28.7,7.1c2.7,0,5.3-0.2,8-0.5c1.1-0.1,2.6-0.5,4.2-0.9c1.4-0.4,3.6-0.9,4.3-0.9
					c1.8,0.3,2.1,3.9,2.4,7.9c0,0.6,0.1,1.1,0.1,1.7l-4,1.4l-1.3,0.5l-0.3,1.4l-4.8,19.6l-17.9,0l-4.5-19.4l-0.3-1.4l-1.4-0.5
					l-1.8-0.6c-7.5-2.5-15.2-5.1-21.8-9.4l-1.4-0.9l-1.4,0.9l-17.6,11.6c-1.3-1.2-3-2.7-4.8-4.2c-3.1-2.6-7.6-6.5-8.6-8.4
					c0.8-1.2,2.6-3.4,4.3-5.5c7.2-8.8,9.2-11.8,8.9-14.1c-0.1-0.9-0.7-2-3-6c-1-1.7-2.1-3.6-2.4-4.4c-1.9-4.3-3.3-8.8-4.5-13
					l-0.4-1.5l-1.5-0.3l-19.8-4.3l-0.1-19.1C872.5,530.3,880.6,528.7,882.9,528.4 M883.3,525.8c-1.6,0-16.4,2.9-16.6,3.7l0.1,22.9
					l21.9,4.8c1.3,4.5,2.7,9,4.6,13.3c0.9,2,5.1,8.8,5.2,9.8c0.4,2.4-11.5,15.3-13.3,18.4c-0.4,0.5-0.1,0.8,0,1.2
					c1.4,4.1,12.6,11.8,15.6,15.5l19.4-12.8c7.4,4.8,15.8,7.5,24.2,10.3l4.9,21.4l22-0.1l5.2-21.6l5.9-2.1c-0.8-3.9,0.4-13.2-5-13.9
					c-0.1,0-0.2,0-0.3,0c-1.8,0-6.7,1.6-8.9,1.9c-2.5,0.3-5.1,0.5-7.6,0.5c-9.5,0-19-2.3-27.5-6.8c-23-12.2-34.9-36.6-30.8-62.5
					c-0.6,0.1-1.2,0.1-1.9,0.1C893.6,529.9,883.3,525.8,883.3,525.8C883.3,525.8,883.3,525.8,883.3,525.8L883.3,525.8z"/>
				
					<linearGradient id="SVGID_00000177456684474314499390000002571867463111081877_" gradientUnits="userSpaceOnUse" x1="950.3155" y1="505.1768" x2="974.1208" y2="506.2841">
					<stop  offset="0" style="stop-color:#D0D5DB"/>
					<stop  offset="0.9955" style="stop-color:#6C7A85"/>
				</linearGradient>
				<path style="fill:url(#SVGID_00000177456684474314499390000002571867463111081877_);" d="M969.4,450.1l4.6,19.6l0.3,1.3l1.2,0.5
					c2.6,1.1,5.2,1.9,7.8,2.7c2.5,0.8,4.9,1.5,7.2,2.5c0.9,0.3,1.9,0.9,3.1,1.6c2.6,1.5,5.6,3.1,8.5,3.1c0.9,0,1.7-0.2,2.5-0.5
					c2.9-1.2,5.9-3.8,8.9-6.3c2.1-1.8,4.3-3.7,6.3-4.9c2.7,2.2,9.5,9.8,12.3,13.3c-1,1.6-3.2,4.4-4.7,6.5c-3.6,4.8-5.9,7.8-6.6,9.7
					c0,0.1-0.1,0.2-0.1,0.3c-0.4,0.9-1,2.3-0.2,4.1l0,0l0,0l9.9,22.6l0.5,1.2l1.3,0.3l18.9,4l0.2,18.7c-1.3,0.2-3.3,0.5-5,0.8
					c-7.2,1.1-12.1,1.9-14,3c-2.7,1.6-3.8,5.8-4.7,9.5c-0.1,0.3-0.2,0.6-0.2,1c-4.1-0.5-6.5-1.9-9.3-5.1c6.3-17.6,3.8-36.6-7-52.4
					c-11.6-16.9-30.5-27-50.6-27c-2.4,0-4.8,0.1-7.2,0.4c-0.1-6.3-1.7-13-4.9-20.3l2.8-10.3H969.4 M1019,469.1
					C1019,469.1,1019,469.1,1019,469.1C1019,469.1,1019,469.1,1019,469.1 M971.4,447.5h-22.2l-3.6,13c3.3,7.3,5.5,15,5,23.1
					c3.3-0.6,6.6-0.9,9.8-0.9c38.4,0,69.4,39,54.7,77.2l0.4,0.6c3.9,4.8,7.4,6.5,13.7,6.8c1-2.8,1.9-9.6,4.3-11
					c2.8-1.6,19.6-3.3,20.4-4l-0.2-22.8l-20.9-4.5l-9.9-22.6c-0.4-1,0.1-1.7,0.4-2.6c1.3-3.4,11.8-15.5,11.9-17.4
					c-1.8-2.5-13.5-15.9-15.3-15.9c-5.2,2.5-11.2,9.6-16.2,11.8c-0.5,0.2-1,0.3-1.5,0.3c-3.3,0-7.6-3.3-10.6-4.6
					c-4.9-2-10.1-3.2-15-5.2L971.4,447.5L971.4,447.5z"/>
				
					<linearGradient id="SVGID_00000167386442382408153650000013445930849097515145_" gradientUnits="userSpaceOnUse" x1="974.9597" y1="539.2505" x2="917.1517" y2="547.1785">
					<stop  offset="0" style="stop-color:#FED500"/>
					<stop  offset="0.9955" style="stop-color:#FFF16E"/>
				</linearGradient>
				<path style="fill:url(#SVGID_00000167386442382408153650000013445930849097515145_);" d="M907.9,450.6c8.8,0,16.8,3.4,22.4,9.6
					c6,6.6,8.9,15.7,8,25.6c-0.1,1.1-0.4,2.4-0.8,3.8c-0.8,2.9-1.6,6-0.7,8.6l0.2,0.5l0.4,0.4c7.7,8.5,16,16.7,24.1,24.7
					c4.2,4.1,8.5,8.4,12.7,12.7c3.9,3.9,7.7,7.9,11.6,11.8c2.4,2.5,4.9,5,7.3,7.5l0.1,0.1l18.5,19.3l2.5,2.6l0.9,1l1.3-0.2
					c1.2-0.2,2.5-0.3,3.7-0.3c14.6,0,26.4,11.9,26.4,26.4c0,14.6-11.8,26.4-26.4,26.4c-14,0-25.8-11.3-26.4-25.3
					c-0.1-2.4,0.1-4.8,0.6-7.1l0.1-0.4l0-0.4c-0.2-2-0.9-3.6-2.2-5.1l-0.1-0.1l-0.1-0.1l-75-75.7l-0.2-0.2l-0.2-0.1
					c-1-0.6-2-0.9-3.2-0.9c-1.3,0-2.5,0.4-3.6,0.7c-0.7,0.2-1.4,0.5-2,0.5c-1.2,0.1-2.4,0.1-3.6,0.1c-10.8,0-19.9-3.6-25.6-10.3
					c-4.6-5.4-6.8-12.4-6.6-20.6l15,14.7l0.7,0.7l1,0l15.8,0.2l1.1,0l0.8-0.8l15.1-14.8l0.8-0.8l0-1.1L922,467l0-1l-0.7-0.7
					l-14.5-14.7C907.2,450.6,907.5,450.6,907.9,450.6 M907.9,448c-2.2,0-4.4,0.2-6.7,0.6l18.2,18.5l0.3,17.2l-15.1,14.8l-15.8-0.2
					L870,480.4c-3.7,24.1,11.5,39.1,34.2,39.1c1.2,0,2.5,0,3.8-0.1c1.8-0.1,3.7-1.2,5.4-1.2c0.6,0,1.2,0.1,1.8,0.5l75,75.7
					c1,1.1,1.4,2.3,1.5,3.7c-0.6,2.5-0.8,5.1-0.7,7.8c0.7,15.4,13.6,27.8,29,27.8c0,0,0,0,0,0c16,0,29-13,29-29c0-16-13-29-29-29
					c-1.4,0-2.7,0.1-4.1,0.3l-2.5-2.6L994.9,554l-0.1-0.1c-6.3-6.4-12.6-12.9-18.9-19.3c-12.2-12.4-25.1-24.4-36.8-37.3
					c-1-3.1,1.3-8,1.7-11.4C942.7,464.5,928.1,448,907.9,448L907.9,448z"/>
			</g>
		</g>
	</g>
</g>
</svg>
